<?xml version="1.0" encoding="UTF-8" standalone="no"?>
<!-- Created with Inkscape (http://www.inkscape.org/) -->

<svg
   width="500.73712mm"
   height="111.65056mm"
   viewBox="0 0 500.73712 111.65056"
   version="1.1"
   id="svg5"
   xml:space="preserve"
   inkscape:version="1.2.2 (b0a8486541, 2022-12-01)"
   sodipodi:docname="fisk.svg"
   inkscape:export-filename="fisk-dark.png"
   inkscape:export-xdpi="40.580002"
   inkscape:export-ydpi="40.580002"
   xmlns:inkscape="http://www.inkscape.org/namespaces/inkscape"
   xmlns:sodipodi="http://sodipodi.sourceforge.net/DTD/sodipodi-0.dtd"
   xmlns="http://www.w3.org/2000/svg"
   xmlns:svg="http://www.w3.org/2000/svg"><sodipodi:namedview
     id="namedview7"
     pagecolor="#ffffff"
     bordercolor="#000000"
     borderopacity="0.25"
     inkscape:showpageshadow="2"
     inkscape:pageopacity="0.0"
     inkscape:pagecheckerboard="0"
     inkscape:deskcolor="#d1d1d1"
     inkscape:document-units="mm"
     showgrid="false"
     inkscape:zoom="0.72248177"
     inkscape:cx="579.94543"
     inkscape:cy="28.374418"
     inkscape:window-width="3380"
     inkscape:window-height="1371"
     inkscape:window-x="0"
     inkscape:window-y="0"
     inkscape:window-maximized="1"
     inkscape:current-layer="layer4" /><defs
     id="defs2"><rect
       x="483.90019"
       y="699.86835"
       width="236.72995"
       height="355.49682"
       id="rect439" /><rect
       x="1515.8503"
       y="-470.28653"
       width="2147.3152"
       height="547.76959"
       id="rect1761" /><style
       id="style375">
      .outline { stroke: #162536; stroke-width: 22; fill: none; stroke-linecap: round; stroke-linejoin: round; }
      .wordmark { fill: #162536; font-family: Arial, Helvetica, sans-serif; font-weight: 700; }
      .tagline { fill: #445466; font-family: Arial, Helvetica, sans-serif; font-weight: 400; letter-spacing: 1px; }
      .sel { fill: #12b7bb; }
      .skip { fill: #a6afba; }
    </style><rect
       x="483.90019"
       y="699.86835"
       width="236.72995"
       height="355.49682"
       id="rect447" /><rect
       x="483.90019"
       y="699.86835"
       width="236.72995"
       height="355.49682"
       id="rect453" /><rect
       x="483.90019"
       y="699.86835"
       width="236.72995"
       height="355.49682"
       id="rect459" /><rect
       x="483.90019"
       y="699.86835"
       width="236.72995"
       height="355.49682"
       id="rect1517" /><rect
       x="483.90019"
       y="699.86835"
       width="236.72995"
       height="355.49682"
       id="rect1519" /><rect
       x="483.90019"
       y="699.86835"
       width="236.72995"
       height="355.49682"
       id="rect1521" /><rect
       x="483.90019"
       y="699.86835"
       width="236.72995"
       height="355.49682"
       id="rect1523" /></defs><g
     inkscape:groupmode="layer"
     id="layer2"
     inkscape:label="bgs"
     style="display:none"
     transform="translate(-397.58426,248.74232)"><rect
       style="fill:#ffffff;fill-opacity:1;stroke:none;stroke-width:2;stroke-linecap:square;stroke-linejoin:round;stroke-dasharray:none;stroke-opacity:1;paint-order:stroke markers fill;stop-color:#000000"
       id="rect1405"
       width="500.73712"
       height="111.65057"
       x="397.58426"
       y="-248.74232"
       rx="0"
       ry="0" /><rect
       style="display:inline;fill:#212830;fill-opacity:1;stroke:none;stroke-width:9.60001;stroke-linecap:square;stroke-linejoin:miter;stroke-dasharray:none;stroke-opacity:1;paint-order:markers stroke fill;stop-color:#000000"
       id="rect5598"
       width="500.73712"
       height="111.65057"
       x="397.58426"
       y="-248.74232" /></g><g
     inkscape:label="fisk text"
     inkscape:groupmode="layer"
     id="layer1"
     transform="translate(-397.58427,248.74232)"
     style="display:none"><rect
       style="display:inline;fill:#ffffff;fill-opacity:1;stroke:none;stroke-width:11.2499;stroke-linecap:square;stroke-linejoin:miter;stroke-dasharray:none;stroke-opacity:1;paint-order:markers stroke fill;stop-color:#000000"
       id="rect3656"
       width="60.411083"
       height="25.71192"
       x="792.99524"
       y="-195.11089" /><g
       id="g1125"
       transform="matrix(1.1718509,0,0,1.1718509,128.59024,-158.60295)"
       style="display:inline;fill:#132539;fill-opacity:1"><text
         xml:space="preserve"
         transform="matrix(0.26458333,0,0,0.26458333,480.66348,-248.74232)"
         id="text457"
         style="font-weight:bold;font-size:250px;line-height:normal;font-family:Verdana;-inkscape-font-specification:'Verdana Bold';text-decoration-color:#000000;white-space:pre;shape-inside:url(#rect459);display:inline;fill:#132539;fill-opacity:1;stroke:#ffffff;stroke-width:21.1654;stroke-linecap:round;stroke-linejoin:round;stroke-dasharray:none;stroke-opacity:1;paint-order:markers stroke fill;stop-color:#000000"><tspan
           x="483.90039"
           y="927.95172"
           id="tspan711">k</tspan></text><text
         xml:space="preserve"
         transform="matrix(0.26458333,0,0,0.26458333,426.68844,-248.74232)"
         id="text445"
         style="font-weight:bold;font-size:250px;line-height:normal;font-family:Verdana;-inkscape-font-specification:'Verdana Bold';text-decoration-color:#000000;white-space:pre;shape-inside:url(#rect447);display:inline;fill:#132539;fill-opacity:1;stroke:#ffffff;stroke-width:21.1654;stroke-linecap:round;stroke-linejoin:round;stroke-dasharray:none;stroke-opacity:1;paint-order:markers stroke fill;stop-color:#000000"><tspan
           x="483.90039"
           y="927.95172"
           id="tspan713">i</tspan></text><text
         xml:space="preserve"
         transform="matrix(0.26458333,0,0,0.26458333,397.58427,-248.74232)"
         id="text437"
         style="font-weight:bold;font-size:250px;line-height:normal;font-family:Verdana;-inkscape-font-specification:'Verdana Bold';text-decoration-color:#000000;white-space:pre;shape-inside:url(#rect439);display:inline;fill:#132539;fill-opacity:1;stroke:#ffffff;stroke-width:21.1654;stroke-linecap:round;stroke-linejoin:round;stroke-dasharray:none;stroke-opacity:1;paint-order:markers stroke fill;stop-color:#000000"><tspan
           x="483.90039"
           y="927.95172"
           id="tspan715">f</tspan></text><text
         xml:space="preserve"
         transform="matrix(0.26458333,0,0,0.26458333,445.73847,-248.74232)"
         id="text451"
         style="font-weight:bold;font-size:250px;line-height:normal;font-family:Verdana;-inkscape-font-specification:'Verdana Bold';text-decoration-color:#000000;white-space:pre;shape-inside:url(#rect453);display:inline;fill:#132539;fill-opacity:1;stroke:#ffffff;stroke-width:21.1654;stroke-linecap:round;stroke-linejoin:round;stroke-dasharray:none;stroke-opacity:1;paint-order:markers stroke fill;stop-color:#000000"><tspan
           x="483.90039"
           y="927.95172"
           id="tspan717">s</tspan></text></g></g><g
     inkscape:groupmode="layer"
     id="layer3"
     inkscape:label="light"
     style="display:none"><g
       inkscape:label="fisk light"
       inkscape:groupmode="layer"
       id="g1515"
       transform="translate(-397.58427,248.74232)"
       style="display:inline"><path
         d="m 893.26942,-160.39071 h -16.9435 l -12.73796,-19.77417 -3.96292,4.81212 v 14.96205 h -14.55767 v -62.92147 h 14.55767 v 37.56686 l 15.68993,-20.05722 h 16.78175 l -16.33694,19.57197 z"
         id="path1534"
         style="font-weight:bold;font-size:250px;font-family:Verdana;-inkscape-font-specification:'Verdana Bold';white-space:pre;fill:#132539;fill-opacity:1;stroke:#ffffff;stroke-width:4.99168;stroke-linecap:round;stroke-linejoin:round;stroke-dasharray:none;paint-order:markers stroke fill" /><path
         d="m 792.04636,-160.39071 h -14.55767 v -45.41183 h 14.55767 z m 0.40438,-51.88191 h -15.36643 v -11.03956 h 15.36643 z"
         id="path1531"
         style="font-weight:bold;font-size:250px;font-family:Verdana;-inkscape-font-specification:'Verdana Bold';white-space:pre;fill:#132539;fill-opacity:1;stroke:#ffffff;stroke-width:4.99168;stroke-linecap:round;stroke-linejoin:round;stroke-dasharray:none;paint-order:markers stroke fill" /><path
         d="m 770.48806,-212.63656 h -1.09183 q -0.97051,-0.28307 -2.54759,-0.64701 -1.53664,-0.36394 -3.31591,-0.36394 -4.28643,0 -5.82307,1.53664 -1.4962,1.53665 -1.4962,5.94439 v 0.36394 h 11.24175 v 9.86686 h -10.7565 v 35.54497 h -14.55766 v -35.54497 h -6.22745 v -9.86686 h 6.22745 v -1.25358 q 0,-8.33022 4.40774,-12.49533 4.44817,-4.16511 13.4254,-4.16511 3.23503,0 5.8635,0.24263 2.62847,0.20218 4.65037,0.56613 z"
         id="path1528"
         style="font-weight:bold;font-size:250px;font-family:Verdana;-inkscape-font-specification:'Verdana Bold';white-space:pre;fill:#132539;fill-opacity:1;stroke:#ffffff;stroke-width:4.99168;stroke-linecap:round;stroke-linejoin:round;stroke-dasharray:none;paint-order:markers stroke fill" /><path
         d="m 840.80746,-174.78663 q 0,7.03621 -6.30832,11.36307 -6.30832,4.28642 -17.26701,4.28642 -6.06569,0 -10.99913,-1.13226 -4.93343,-1.13226 -7.92584,-2.50715 v -11.96964 h 1.33446 q 1.09182,0.76832 2.50715,1.69839 1.45577,0.88964 4.08423,1.94103 2.26453,0.93007 5.13563,1.61752 2.87109,0.647 6.14657,0.647 4.28642,0 6.34876,-0.93007 2.06233,-0.97051 2.06233,-2.83066 0,-1.65796 -1.21314,-2.38584 -1.21314,-0.76832 -4.60992,-1.45576 -1.61752,-0.36395 -4.40774,-0.76833 -2.74978,-0.44481 -5.01431,-1.05138 -6.18701,-1.61752 -9.17942,-5.01431 -2.99241,-3.43723 -2.99241,-8.53241 0,-6.55095 6.18701,-10.87781 6.22745,-4.3673 16.98395,-4.3673 5.09518,0 9.74555,1.05139 4.6908,1.01095 7.31926,2.18364 v 11.48439 h -1.25357 q -3.23504,-2.22409 -7.40015,-3.59898 -4.12467,-1.41533 -8.37066,-1.41533 -3.5181,0 -5.94437,0.97051 -2.38584,0.97051 -2.38584,2.74978 0,1.61752 1.09182,2.46672 1.09182,0.8492 5.13562,1.69839 2.22409,0.44482 4.77168,0.88964 2.58803,0.40438 5.17606,1.05138 5.74219,1.49621 8.49197,4.73125 2.74978,3.19459 2.74978,8.00671 z"
         id="path1525"
         style="font-weight:bold;font-size:250px;font-family:Verdana;-inkscape-font-specification:'Verdana Bold';white-space:pre;fill:#132539;fill-opacity:1;stroke:#ffffff;stroke-width:4.99168;stroke-linecap:round;stroke-linejoin:round;stroke-dasharray:none;paint-order:markers stroke fill" /></g><g
       id="g1491"
       style="display:inline;stroke:#ffffff;stroke-width:1;stroke-linejoin:miter;stroke-dasharray:none;stroke-opacity:1"
       inkscape:label="fish light"
       transform="translate(-397.58427,248.74232)"><path
         style="display:inline;fill:#ffffff;fill-opacity:1;stroke:none;stroke-width:4.99999;stroke-linecap:square;stroke-linejoin:miter;stroke-dasharray:none;stroke-opacity:1;paint-order:markers stroke fill;stop-color:#000000"
         d="m 406.64047,-192.00228 41.14909,-31.86353 46.62725,-14.1808 44.96859,0.97633 38.63633,15.19004 33.26546,30.44159 -33.93993,27.37668 -28.51682,12.66087 -48.51556,5.09553 -56.85123,-13.67082 z"
         id="path1419"
         transform="translate(1.4583334e-6)" /><path
         style="display:inline;fill:#ffffff;fill-opacity:1;stroke:none;stroke-width:4.99999;stroke-linecap:square;stroke-linejoin:miter;stroke-dasharray:none;stroke-opacity:1;paint-order:markers stroke fill;stop-color:#000000"
         d="m 705.38639,-237.41017 c -18.3969,31.01422 -18.05186,61.27658 0.0426,88.28277 1.68093,2.50881 -56.21415,-6.47389 -56.21415,-6.47389 l -36.79859,-36.13808 41.26756,-36.34746 c 0,0 53.05763,-11.60777 51.70256,-9.32334 z"
         id="path1421"
         sodipodi:nodetypes="sscccs"
         transform="translate(1.4583334e-6)" /><circle
         cx="429.25415"
         cy="-191.42685"
         r="7.4083333"
         fill="#162536"
         id="circle1423"
         style="fill:#132539;fill-opacity:1;stroke:none;stroke-width:1;stroke-linejoin:miter;stroke-dasharray:none;stroke-opacity:1;paint-order:markers stroke fill" /><rect
         class="sel"
         x="451.69543"
         y="-214.98831"
         width="7.4083252"
         height="47.122936"
         rx="3.7041667"
         id="rect1425"
         ry="3.7041667"
         style="fill:#019597;fill-opacity:0.996078;stroke:none;stroke-width:1;stroke-linejoin:miter;stroke-dasharray:none;stroke-opacity:1;paint-order:markers stroke fill" /><rect
         class="sel"
         x="470.61319"
         y="-219.19106"
         width="7.4083252"
         height="55.528435"
         rx="3.7041626"
         id="rect1427"
         ry="3.7041667"
         style="fill:#019597;fill-opacity:0.996078;stroke:none;stroke-width:1;stroke-linejoin:miter;stroke-dasharray:none;stroke-opacity:1;paint-order:markers stroke fill" /><g
         id="g1441"
         transform="matrix(0.26458333,0,0,0.26458333,384.75588,-260.87998)"
         style="fill:#a6afba;fill-opacity:1;stroke:none;stroke-width:3.77953;stroke-linejoin:miter;stroke-dasharray:none;stroke-opacity:1;paint-order:markers stroke fill"><circle
           class="skip"
           cx="410"
           cy="170"
           r="10.08"
           id="circle1429"
           style="fill:#83888b;fill-opacity:0.992157;stroke:none;stroke-width:3.77953;stroke-linejoin:miter;stroke-dasharray:none;stroke-opacity:1;paint-order:markers stroke fill" /><circle
           class="skip"
           cx="410"
           cy="207"
           r="10.08"
           id="circle1431"
           style="fill:#83888b;fill-opacity:0.992157;stroke:none;stroke-width:3.77953;stroke-linejoin:miter;stroke-dasharray:none;stroke-opacity:1;paint-order:markers stroke fill" /><circle
           class="skip"
           cx="410"
           cy="244"
           r="10.08"
           id="circle1433"
           style="fill:#83888b;fill-opacity:0.992157;stroke:none;stroke-width:3.77953;stroke-linejoin:miter;stroke-dasharray:none;stroke-opacity:1;paint-order:markers stroke fill" /><circle
           class="skip"
           cx="410"
           cy="281"
           r="10.08"
           id="circle1435"
           style="fill:#83888b;fill-opacity:0.992157;stroke:none;stroke-width:3.77953;stroke-linejoin:miter;stroke-dasharray:none;stroke-opacity:1;paint-order:markers stroke fill" /><circle
           class="skip"
           cx="410"
           cy="318"
           r="10.08"
           id="circle1437"
           style="fill:#83888b;fill-opacity:0.992157;stroke:none;stroke-width:3.77953;stroke-linejoin:miter;stroke-dasharray:none;stroke-opacity:1;paint-order:markers stroke fill" /><circle
           class="skip"
           cx="410"
           cy="355"
           r="10.08"
           id="circle1439"
           style="fill:#83888b;fill-opacity:0.992157;stroke:none;stroke-width:3.77953;stroke-linejoin:miter;stroke-dasharray:none;stroke-opacity:1;paint-order:markers stroke fill" /></g><rect
         class="sel"
         x="508.44861"
         y="-221.17029"
         width="7.4083252"
         height="59.486889"
         rx="3.7041626"
         id="rect1443"
         ry="3.7041667"
         style="fill:#019597;fill-opacity:0.996078;stroke:none;stroke-width:1;stroke-linejoin:miter;stroke-dasharray:none;stroke-opacity:1;paint-order:markers stroke fill" /><g
         id="g1457"
         transform="matrix(0.26458333,0,0,0.26458333,378.93504,-260.87998)"
         style="fill:#a6afba;fill-opacity:1;stroke:none;stroke-width:3.77953;stroke-linejoin:miter;stroke-dasharray:none;stroke-opacity:1;paint-order:markers stroke fill"><circle
           class="skip"
           cx="575"
           cy="170"
           r="10.08"
           id="circle1445"
           style="fill:#83888b;fill-opacity:0.992157;stroke:none;stroke-width:3.77953;stroke-linejoin:miter;stroke-dasharray:none;stroke-opacity:1;paint-order:markers stroke fill" /><circle
           class="skip"
           cx="575"
           cy="207"
           r="10.08"
           id="circle1447"
           style="fill:#83888b;fill-opacity:0.992157;stroke:none;stroke-width:3.77953;stroke-linejoin:miter;stroke-dasharray:none;stroke-opacity:1;paint-order:markers stroke fill" /><circle
           class="skip"
           cx="575"
           cy="244"
           r="10.08"
           id="circle1449"
           style="fill:#83888b;fill-opacity:0.992157;stroke:none;stroke-width:3.77953;stroke-linejoin:miter;stroke-dasharray:none;stroke-opacity:1;paint-order:markers stroke fill" /><circle
           class="skip"
           cx="575"
           cy="281"
           r="10.08"
           id="circle1451"
           style="fill:#83888b;fill-opacity:0.992157;stroke:none;stroke-width:3.77953;stroke-linejoin:miter;stroke-dasharray:none;stroke-opacity:1;paint-order:markers stroke fill" /><circle
           class="skip"
           cx="575"
           cy="318"
           r="10.08"
           id="circle1453"
           style="fill:#83888b;fill-opacity:0.992157;stroke:none;stroke-width:3.77953;stroke-linejoin:miter;stroke-dasharray:none;stroke-opacity:1;paint-order:markers stroke fill" /><circle
           class="skip"
           cx="575"
           cy="355"
           r="10.08"
           id="circle1455"
           style="fill:#83888b;fill-opacity:0.992157;stroke:none;stroke-width:3.77953;stroke-linejoin:miter;stroke-dasharray:none;stroke-opacity:1;paint-order:markers stroke fill" /></g><rect
         class="sel"
         x="546.28387"
         y="-215.44203"
         width="7.4083252"
         height="48.030369"
         rx="3.7041626"
         id="rect1459"
         ry="3.7041667"
         style="fill:#019597;fill-opacity:0.996078;stroke:none;stroke-width:1;stroke-linejoin:miter;stroke-dasharray:none;stroke-opacity:1;paint-order:markers stroke fill" /><rect
         class="sel"
         x="565.2016"
         y="-209.37192"
         width="7.4083252"
         height="35.890152"
         rx="3.7041626"
         id="rect1461"
         ry="3.7041667"
         style="fill:#019597;fill-opacity:0.996078;stroke:none;stroke-width:1;stroke-linejoin:miter;stroke-dasharray:none;stroke-opacity:1;paint-order:markers stroke fill" /><rect
         class="sel"
         x="660.77545"
         y="-217.60637"
         width="7.4083252"
         height="52.359051"
         rx="3.7041626"
         id="rect1463"
         ry="3.7041667"
         style="fill:#019597;fill-opacity:0.996078;stroke:none;stroke-width:1;stroke-linejoin:miter;stroke-dasharray:none;stroke-opacity:1;paint-order:markers stroke fill" /><path
         style="fill:#132539;fill-opacity:1;stroke:#ffffff;stroke-width:5;stroke-linejoin:miter;stroke-dasharray:none;stroke-opacity:1;paint-order:markers stroke fill"
         d="m 682.79745,-140.75428 c -7.32298,-0.70176 -10.92335,-1.45253 -17.85938,-3.72411 -9.77117,-3.2001 -18.55258,-8.31912 -28.44271,-16.5803 -4.45232,-3.719 -11.96064,-10.9173 -20.63524,-19.78321 -12.62983,-12.90836 -20.00289,-19.69944 -28.44496,-26.19971 -14.39825,-11.08643 -27.65475,-17.88699 -43.69053,-22.41316 -26.29279,-7.42126 -52.33298,-6.11104 -79.61185,4.00569 -9.02389,3.34663 -20.29093,9.06214 -28.89953,14.66006 -8.41966,5.47505 -16.84164,12.13958 -22.12858,17.51092 l -1.82216,1.85125 2.61591,2.70451 c 5.14813,5.3225 11.92942,10.82857 19.34442,15.7067 32.35247,21.2838 74.48032,27.14525 112.58263,15.66415 20.2915,-6.11429 36.1888,-15.09369 54.30969,-30.6762 l 2.64583,-2.27521 3.37344,3.35982 c 1.85539,1.8479 3.37343,3.43151 3.37343,3.51914 0,0.49873 -10.48892,9.29953 -15.71282,13.18395 -12.3448,9.17941 -26.30371,16.51628 -39.98197,21.0147 -18.7084,6.15272 -38.96496,8.95984 -56.62083,7.84643 -6.86675,-0.43302 -15.48921,-1.63187 -20.90208,-2.90618 -1.16417,-0.27407 -3.48589,-0.82386 -5.15938,-1.22176 -8.515,-2.02458 -20.16172,-6.46205 -28.74519,-10.95209 -12.26716,-6.41699 -22.70417,-14.19471 -32.83774,-24.47091 -5.44677,-5.52344 -8.18551,-8.82119 -8.43636,-10.15833 -0.26525,-1.41394 0.63987,-2.81264 4.52808,-6.99729 13.73402,-14.78113 32.55474,-27.95391 51.20371,-35.83791 13.36187,-5.64883 27.34574,-9.17659 41.53959,-10.47931 9.51037,-0.87287 16.02358,-0.80758 26.06146,0.26123 13.99279,1.48993 28.06747,5.38283 40.65463,11.24463 10.74735,5.00501 18.85519,10.10219 29.16899,18.33774 7.05802,5.63581 14.01304,12.19568 27.94521,26.35744 7.05485,7.17111 14.44569,14.47934 16.42409,16.24051 13.86422,12.34188 26.50296,19.05768 40.85291,21.70783 5.64112,1.0418 9.19797,1.29847 15.61515,1.1268 5.31685,-0.14223 5.9218,-0.11275 6.92777,0.33763 2.5305,1.13294 2.55606,4.54621 0.0455,6.07299 -1.03132,0.62718 -4.65656,1.51464 -7.63251,1.86844 -2.05693,0.24454 -9.45161,0.30365 -11.6486,0.0931 z m -65.88522,-56.86621 -3.30332,-3.32924 4.49791,-4.3738 c 13.7068,-13.32858 23.21579,-21.10976 33.10361,-27.08855 8.3012,-5.01942 16.51889,-8.50756 25.10473,-10.65616 11.93083,-2.98568 23.32971,-2.88505 26.44822,0.23348 1.24918,1.24917 1.43788,2.41258 0.6291,3.87872 -1.06338,1.92773 -2.13339,2.32448 -7.03085,2.60707 -4.92588,0.28423 -5.84729,0.38445 -9.86002,1.07245 -8.2378,1.41243 -16.94471,4.42674 -24.8426,8.60045 -11.48884,6.07141 -22.2532,14.45804 -38.57938,30.05768 -1.33953,1.27992 -2.53194,2.32713 -2.6498,2.32713 -0.11785,0 -1.70078,-1.49815 -3.5176,-3.32923 z"
         id="path1465"
         sodipodi:nodetypes="ssssssssscsssscsssssssssssssssssssssssssscsssssssssss" /><g
         id="g1475"
         transform="matrix(0.26458333,0,0,0.26458333,537.08277,-251.09039)"
         style="fill:#a6afba;fill-opacity:1;stroke:none;stroke-width:3.77953;stroke-linejoin:miter;stroke-dasharray:none;stroke-opacity:1;paint-order:markers stroke fill"><circle
           class="skip"
           cx="410"
           cy="170"
           r="10.08"
           id="circle1467"
           style="fill:#83888b;fill-opacity:0.992157;stroke:none;stroke-width:3.77953;stroke-linejoin:miter;stroke-dasharray:none;stroke-opacity:1;paint-order:markers stroke fill" /><circle
           class="skip"
           cx="410"
           cy="207"
           r="10.08"
           id="circle1469"
           style="fill:#83888b;fill-opacity:0.992157;stroke:none;stroke-width:3.77953;stroke-linejoin:miter;stroke-dasharray:none;stroke-opacity:1;paint-order:markers stroke fill" /><circle
           class="skip"
           cx="410"
           cy="244"
           r="10.08"
           id="circle1471"
           style="fill:#83888b;fill-opacity:0.992157;stroke:none;stroke-width:3.77953;stroke-linejoin:miter;stroke-dasharray:none;stroke-opacity:1;paint-order:markers stroke fill" /><circle
           class="skip"
           cx="410"
           cy="281"
           r="10.08"
           id="circle1473"
           style="fill:#83888b;fill-opacity:0.992157;stroke:none;stroke-width:3.77953;stroke-linejoin:miter;stroke-dasharray:none;stroke-opacity:1;paint-order:markers stroke fill" /></g><g
         id="g1489"
         transform="matrix(0.26458333,0,0,0.26458333,531.26193,-260.87997)"
         style="fill:#a6afba;fill-opacity:1;stroke:none;stroke-width:3.77953;stroke-linejoin:miter;stroke-dasharray:none;stroke-opacity:1;paint-order:markers stroke fill"><circle
           class="skip"
           cx="575"
           cy="170"
           r="10.08"
           id="circle1477"
           style="fill:#83888b;fill-opacity:0.992157;stroke:none;stroke-width:3.77953;stroke-linejoin:miter;stroke-dasharray:none;stroke-opacity:1;paint-order:markers stroke fill" /><circle
           class="skip"
           cx="575"
           cy="207"
           r="10.08"
           id="circle1479"
           style="fill:#83888b;fill-opacity:0.992157;stroke:none;stroke-width:3.77953;stroke-linejoin:miter;stroke-dasharray:none;stroke-opacity:1;paint-order:markers stroke fill" /><circle
           class="skip"
           cx="575"
           cy="244"
           r="10.08"
           id="circle1481"
           style="fill:#83888b;fill-opacity:0.992157;stroke:none;stroke-width:3.77953;stroke-linejoin:miter;stroke-dasharray:none;stroke-opacity:1;paint-order:markers stroke fill" /><circle
           class="skip"
           cx="575"
           cy="281"
           r="10.08"
           id="circle1483"
           style="fill:#83888b;fill-opacity:0.992157;stroke:none;stroke-width:3.77953;stroke-linejoin:miter;stroke-dasharray:none;stroke-opacity:1;paint-order:markers stroke fill" /><circle
           class="skip"
           cx="575"
           cy="318"
           r="10.08"
           id="circle1485"
           style="fill:#83888b;fill-opacity:0.992157;stroke:none;stroke-width:3.77953;stroke-linejoin:miter;stroke-dasharray:none;stroke-opacity:1;paint-order:markers stroke fill" /><circle
           class="skip"
           cx="575"
           cy="355"
           r="10.08"
           id="circle1487"
           style="fill:#83888b;fill-opacity:0.992157;stroke:none;stroke-width:3.77953;stroke-linejoin:miter;stroke-dasharray:none;stroke-opacity:1;paint-order:markers stroke fill" /></g></g></g><g
     inkscape:groupmode="layer"
     id="layer4"
     inkscape:label="dark"
     style="display:inline"><g
       inkscape:label="fisk dark"
       inkscape:groupmode="layer"
       id="g1035"
       transform="translate(-397.58427,248.74232)"
       style="display:inline"><path
         d="m 893.26942,-160.39071 h -16.9435 l -12.73796,-19.77417 -3.96292,4.81212 v 14.96205 h -14.55767 v -62.92147 h 14.55767 v 37.56686 l 15.68993,-20.05722 h 16.78175 l -16.33694,19.57197 z"
         id="path1027"
         style="font-weight:bold;font-size:250px;font-family:Verdana;-inkscape-font-specification:'Verdana Bold';white-space:pre;fill:#cededf;fill-opacity:1;stroke:none;stroke-width:4.99168;stroke-linecap:round;stroke-linejoin:round;stroke-dasharray:none;paint-order:markers stroke fill" /><path
         d="m 792.04636,-160.39071 h -14.55767 v -45.41183 h 14.55767 z m 0.40438,-51.88191 h -15.36643 v -11.03956 h 15.36643 z"
         id="path1029"
         style="font-weight:bold;font-size:250px;font-family:Verdana;-inkscape-font-specification:'Verdana Bold';white-space:pre;fill:#cededf;fill-opacity:1;stroke:none;stroke-width:4.99168;stroke-linecap:round;stroke-linejoin:round;stroke-dasharray:none;paint-order:markers stroke fill" /><path
         d="m 770.48806,-212.63656 h -1.09183 q -0.97051,-0.28307 -2.54759,-0.64701 -1.53664,-0.36394 -3.31591,-0.36394 -4.28643,0 -5.82307,1.53664 -1.4962,1.53665 -1.4962,5.94439 v 0.36394 h 11.24175 v 9.86686 h -10.7565 v 35.54497 h -14.55766 v -35.54497 h -6.22745 v -9.86686 h 6.22745 v -1.25358 q 0,-8.33022 4.40774,-12.49533 4.44817,-4.16511 13.4254,-4.16511 3.23503,0 5.8635,0.24263 2.62847,0.20218 4.65037,0.56613 z"
         id="path1031"
         style="font-weight:bold;font-size:250px;font-family:Verdana;-inkscape-font-specification:'Verdana Bold';white-space:pre;fill:#cededf;fill-opacity:1;stroke:none;stroke-width:4.99168;stroke-linecap:round;stroke-linejoin:round;stroke-dasharray:none;paint-order:markers stroke fill" /><path
         d="m 840.80746,-174.78663 q 0,7.03621 -6.30832,11.36307 -6.30832,4.28642 -17.26701,4.28642 -6.06569,0 -10.99913,-1.13226 -4.93343,-1.13226 -7.92584,-2.50715 v -11.96964 h 1.33446 q 1.09182,0.76832 2.50715,1.69839 1.45577,0.88964 4.08423,1.94103 2.26453,0.93007 5.13563,1.61752 2.87109,0.647 6.14657,0.647 4.28642,0 6.34876,-0.93007 2.06233,-0.97051 2.06233,-2.83066 0,-1.65796 -1.21314,-2.38584 -1.21314,-0.76832 -4.60992,-1.45576 -1.61752,-0.36395 -4.40774,-0.76833 -2.74978,-0.44481 -5.01431,-1.05138 -6.18701,-1.61752 -9.17942,-5.01431 -2.99241,-3.43723 -2.99241,-8.53241 0,-6.55095 6.18701,-10.87781 6.22745,-4.3673 16.98395,-4.3673 5.09518,0 9.74555,1.05139 4.6908,1.01095 7.31926,2.18364 v 11.48439 h -1.25357 q -3.23504,-2.22409 -7.40015,-3.59898 -4.12467,-1.41533 -8.37066,-1.41533 -3.5181,0 -5.94437,0.97051 -2.38584,0.97051 -2.38584,2.74978 0,1.61752 1.09182,2.46672 1.09182,0.8492 5.13562,1.69839 2.22409,0.44482 4.77168,0.88964 2.58803,0.40438 5.17606,1.05138 5.74219,1.49621 8.49197,4.73125 2.74978,3.19459 2.74978,8.00671 z"
         id="path1033"
         style="font-weight:bold;font-size:250px;font-family:Verdana;-inkscape-font-specification:'Verdana Bold';white-space:pre;fill:#cededf;fill-opacity:1;stroke:none;stroke-width:4.99168;stroke-linecap:round;stroke-linejoin:round;stroke-dasharray:none;paint-order:markers stroke fill" /></g><g
       id="g424"
       style="display:inline;stroke:#ffffff;stroke-width:1;stroke-linejoin:miter;stroke-dasharray:none;stroke-opacity:1"
       inkscape:label="fish dark"
       transform="translate(-397.58427,248.74232)"><circle
         cx="429.25415"
         cy="-191.42685"
         r="7.4083333"
         fill="#162536"
         id="circle356"
         style="fill:#cededf;fill-opacity:1;stroke:none;stroke-width:1;stroke-linejoin:miter;stroke-dasharray:none;stroke-opacity:1;paint-order:markers stroke fill" /><rect
         class="sel"
         x="451.69543"
         y="-214.98831"
         width="7.4083252"
         height="47.122936"
         rx="3.7041667"
         id="rect358"
         ry="3.7041667"
         style="fill:#019597;fill-opacity:0.996078;stroke:none;stroke-width:1;stroke-linejoin:miter;stroke-dasharray:none;stroke-opacity:1;paint-order:markers stroke fill" /><rect
         class="sel"
         x="470.61319"
         y="-219.19106"
         width="7.4083252"
         height="55.528435"
         rx="3.7041626"
         id="rect360"
         ry="3.7041667"
         style="fill:#019597;fill-opacity:0.996078;stroke:none;stroke-width:1;stroke-linejoin:miter;stroke-dasharray:none;stroke-opacity:1;paint-order:markers stroke fill" /><g
         id="g374"
         transform="matrix(0.26458333,0,0,0.26458333,384.75588,-260.87998)"
         style="fill:#bbc2ca;fill-opacity:1;stroke:none;stroke-width:3.77953;stroke-linejoin:miter;stroke-dasharray:none;stroke-opacity:1;paint-order:markers stroke fill"><circle
           class="skip"
           cx="410"
           cy="170"
           r="10.08"
           id="circle362"
           style="fill:#bbc2ca;fill-opacity:1;stroke:none;stroke-width:3.77953;stroke-linejoin:miter;stroke-dasharray:none;stroke-opacity:1;paint-order:markers stroke fill" /><circle
           class="skip"
           cx="410"
           cy="207"
           r="10.08"
           id="circle364"
           style="fill:#bbc2ca;fill-opacity:1;stroke:none;stroke-width:3.77953;stroke-linejoin:miter;stroke-dasharray:none;stroke-opacity:1;paint-order:markers stroke fill" /><circle
           class="skip"
           cx="410"
           cy="244"
           r="10.08"
           id="circle366"
           style="fill:#bbc2ca;fill-opacity:1;stroke:none;stroke-width:3.77953;stroke-linejoin:miter;stroke-dasharray:none;stroke-opacity:1;paint-order:markers stroke fill" /><circle
           class="skip"
           cx="410"
           cy="281"
           r="10.08"
           id="circle368"
           style="fill:#bbc2ca;fill-opacity:1;stroke:none;stroke-width:3.77953;stroke-linejoin:miter;stroke-dasharray:none;stroke-opacity:1;paint-order:markers stroke fill" /><circle
           class="skip"
           cx="410"
           cy="318"
           r="10.08"
           id="circle370"
           style="fill:#bbc2ca;fill-opacity:1;stroke:none;stroke-width:3.77953;stroke-linejoin:miter;stroke-dasharray:none;stroke-opacity:1;paint-order:markers stroke fill" /><circle
           class="skip"
           cx="410"
           cy="355"
           r="10.08"
           id="circle372"
           style="fill:#bbc2ca;fill-opacity:1;stroke:none;stroke-width:3.77953;stroke-linejoin:miter;stroke-dasharray:none;stroke-opacity:1;paint-order:markers stroke fill" /></g><rect
         class="sel"
         x="508.44861"
         y="-221.17029"
         width="7.4083252"
         height="59.486889"
         rx="3.7041626"
         id="rect376"
         ry="3.7041667"
         style="fill:#019597;fill-opacity:0.996078;stroke:none;stroke-width:1;stroke-linejoin:miter;stroke-dasharray:none;stroke-opacity:1;paint-order:markers stroke fill" /><g
         id="g390"
         transform="matrix(0.26458333,0,0,0.26458333,378.93504,-260.87998)"
         style="fill:#bbc2ca;fill-opacity:1;stroke:none;stroke-width:3.77953;stroke-linejoin:miter;stroke-dasharray:none;stroke-opacity:1;paint-order:markers stroke fill"><circle
           class="skip"
           cx="575"
           cy="170"
           r="10.08"
           id="circle378"
           style="fill:#bbc2ca;fill-opacity:1;stroke:none;stroke-width:3.77953;stroke-linejoin:miter;stroke-dasharray:none;stroke-opacity:1;paint-order:markers stroke fill" /><circle
           class="skip"
           cx="575"
           cy="207"
           r="10.08"
           id="circle380"
           style="fill:#bbc2ca;fill-opacity:1;stroke:none;stroke-width:3.77953;stroke-linejoin:miter;stroke-dasharray:none;stroke-opacity:1;paint-order:markers stroke fill" /><circle
           class="skip"
           cx="575"
           cy="244"
           r="10.08"
           id="circle382"
           style="fill:#bbc2ca;fill-opacity:1;stroke:none;stroke-width:3.77953;stroke-linejoin:miter;stroke-dasharray:none;stroke-opacity:1;paint-order:markers stroke fill" /><circle
           class="skip"
           cx="575"
           cy="281"
           r="10.08"
           id="circle384"
           style="fill:#bbc2ca;fill-opacity:1;stroke:none;stroke-width:3.77953;stroke-linejoin:miter;stroke-dasharray:none;stroke-opacity:1;paint-order:markers stroke fill" /><circle
           class="skip"
           cx="575"
           cy="318"
           r="10.08"
           id="circle386"
           style="fill:#bbc2ca;fill-opacity:1;stroke:none;stroke-width:3.77953;stroke-linejoin:miter;stroke-dasharray:none;stroke-opacity:1;paint-order:markers stroke fill" /><circle
           class="skip"
           cx="575"
           cy="355"
           r="10.08"
           id="circle388"
           style="fill:#bbc2ca;fill-opacity:1;stroke:none;stroke-width:3.77953;stroke-linejoin:miter;stroke-dasharray:none;stroke-opacity:1;paint-order:markers stroke fill" /></g><rect
         class="sel"
         x="546.28387"
         y="-215.44203"
         width="7.4083252"
         height="48.030369"
         rx="3.7041626"
         id="rect392"
         ry="3.7041667"
         style="fill:#019597;fill-opacity:0.996078;stroke:none;stroke-width:1;stroke-linejoin:miter;stroke-dasharray:none;stroke-opacity:1;paint-order:markers stroke fill" /><rect
         class="sel"
         x="565.2016"
         y="-209.37192"
         width="7.4083252"
         height="35.890152"
         rx="3.7041626"
         id="rect394"
         ry="3.7041667"
         style="fill:#019597;fill-opacity:0.996078;stroke:none;stroke-width:1;stroke-linejoin:miter;stroke-dasharray:none;stroke-opacity:1;paint-order:markers stroke fill" /><rect
         class="sel"
         x="660.77545"
         y="-217.60637"
         width="7.4083252"
         height="52.359051"
         rx="3.7041626"
         id="rect396"
         ry="3.7041667"
         style="fill:#019597;fill-opacity:0.996078;stroke:none;stroke-width:1;stroke-linejoin:miter;stroke-dasharray:none;stroke-opacity:1;paint-order:markers stroke fill" /><path
         style="fill:#cededf;fill-opacity:1;stroke:none;stroke-width:5;stroke-linejoin:miter;stroke-dasharray:none;stroke-opacity:1;paint-order:markers stroke fill"
         d="m 682.79745,-140.75428 c -7.32298,-0.70176 -10.92335,-1.45253 -17.85938,-3.72411 -9.77117,-3.2001 -18.55258,-8.31912 -28.44271,-16.5803 -4.45232,-3.719 -11.96064,-10.9173 -20.63524,-19.78321 -12.62983,-12.90836 -20.00289,-19.69944 -28.44496,-26.19971 -14.39825,-11.08643 -27.65475,-17.88699 -43.69053,-22.41316 -26.29279,-7.42126 -52.33298,-6.11104 -79.61185,4.00569 -9.02389,3.34663 -20.29093,9.06214 -28.89953,14.66006 -8.41966,5.47505 -16.84164,12.13958 -22.12858,17.51092 l -1.82216,1.85125 2.61591,2.70451 c 5.14813,5.3225 11.92942,10.82857 19.34442,15.7067 32.35247,21.2838 74.48032,27.14525 112.58263,15.66415 20.2915,-6.11429 36.1888,-15.09369 54.30969,-30.6762 l 2.64583,-2.27521 3.37344,3.35982 c 1.85539,1.8479 3.37343,3.43151 3.37343,3.51914 0,0.49873 -10.48892,9.29953 -15.71282,13.18395 -12.3448,9.17941 -26.30371,16.51628 -39.98197,21.0147 -18.7084,6.15272 -38.96496,8.95984 -56.62083,7.84643 -6.86675,-0.43302 -15.48921,-1.63187 -20.90208,-2.90618 -1.16417,-0.27407 -3.48589,-0.82386 -5.15938,-1.22176 -8.515,-2.02458 -20.16172,-6.46205 -28.74519,-10.95209 -12.26716,-6.41699 -22.70417,-14.19471 -32.83774,-24.47091 -5.44677,-5.52344 -8.18551,-8.82119 -8.43636,-10.15833 -0.26525,-1.41394 0.63987,-2.81264 4.52808,-6.99729 13.73402,-14.78113 32.55474,-27.95391 51.20371,-35.83791 13.36187,-5.64883 27.34574,-9.17659 41.53959,-10.47931 9.51037,-0.87287 16.02358,-0.80758 26.06146,0.26123 13.99279,1.48993 28.06747,5.38283 40.65463,11.24463 10.74735,5.00501 18.85519,10.10219 29.16899,18.33774 7.05802,5.63581 14.01304,12.19568 27.94521,26.35744 7.05485,7.17111 14.44569,14.47934 16.42409,16.24051 13.86422,12.34188 26.50296,19.05768 40.85291,21.70783 5.64112,1.0418 9.19797,1.29847 15.61515,1.1268 5.31685,-0.14223 5.9218,-0.11275 6.92777,0.33763 2.5305,1.13294 2.55606,4.54621 0.0455,6.07299 -1.03132,0.62718 -4.65656,1.51464 -7.63251,1.86844 -2.05693,0.24454 -9.45161,0.30365 -11.6486,0.0931 z m -65.88522,-56.86621 -3.30332,-3.32924 4.49791,-4.3738 c 13.7068,-13.32858 23.21579,-21.10976 33.10361,-27.08855 8.3012,-5.01942 16.51889,-8.50756 25.10473,-10.65616 11.93083,-2.98568 23.32971,-2.88505 26.44822,0.23348 1.24918,1.24917 1.43788,2.41258 0.6291,3.87872 -1.06338,1.92773 -2.13339,2.32448 -7.03085,2.60707 -4.92588,0.28423 -5.84729,0.38445 -9.86002,1.07245 -8.2378,1.41243 -16.94471,4.42674 -24.8426,8.60045 -11.48884,6.07141 -22.2532,14.45804 -38.57938,30.05768 -1.33953,1.27992 -2.53194,2.32713 -2.6498,2.32713 -0.11785,0 -1.70078,-1.49815 -3.5176,-3.32923 z"
         id="path398"
         sodipodi:nodetypes="ssssssssscsssscsssssssssssssssssssssssssscsssssssssss" /><g
         id="g408"
         transform="matrix(0.26458333,0,0,0.26458333,537.08277,-251.09039)"
         style="fill:#bbc2ca;fill-opacity:1;stroke:none;stroke-width:3.77953;stroke-linejoin:miter;stroke-dasharray:none;stroke-opacity:1;paint-order:markers stroke fill"><circle
           class="skip"
           cx="410"
           cy="170"
           r="10.08"
           id="circle400"
           style="fill:#bbc2ca;fill-opacity:1;stroke:none;stroke-width:3.77953;stroke-linejoin:miter;stroke-dasharray:none;stroke-opacity:1;paint-order:markers stroke fill" /><circle
           class="skip"
           cx="410"
           cy="207"
           r="10.08"
           id="circle402"
           style="fill:#bbc2ca;fill-opacity:1;stroke:none;stroke-width:3.77953;stroke-linejoin:miter;stroke-dasharray:none;stroke-opacity:1;paint-order:markers stroke fill" /><circle
           class="skip"
           cx="410"
           cy="244"
           r="10.08"
           id="circle404"
           style="fill:#bbc2ca;fill-opacity:1;stroke:none;stroke-width:3.77953;stroke-linejoin:miter;stroke-dasharray:none;stroke-opacity:1;paint-order:markers stroke fill" /><circle
           class="skip"
           cx="410"
           cy="281"
           r="10.08"
           id="circle406"
           style="fill:#bbc2ca;fill-opacity:1;stroke:none;stroke-width:3.77953;stroke-linejoin:miter;stroke-dasharray:none;stroke-opacity:1;paint-order:markers stroke fill" /></g><g
         id="g422"
         transform="matrix(0.26458333,0,0,0.26458333,531.26193,-260.87997)"
         style="fill:#bbc2ca;fill-opacity:1;stroke:none;stroke-width:3.77953;stroke-linejoin:miter;stroke-dasharray:none;stroke-opacity:1;paint-order:markers stroke fill"><circle
           class="skip"
           cx="575"
           cy="170"
           r="10.08"
           id="circle410"
           style="fill:#bbc2ca;fill-opacity:1;stroke:none;stroke-width:3.77953;stroke-linejoin:miter;stroke-dasharray:none;stroke-opacity:1;paint-order:markers stroke fill" /><circle
           class="skip"
           cx="575"
           cy="207"
           r="10.08"
           id="circle412"
           style="fill:#bbc2ca;fill-opacity:1;stroke:none;stroke-width:3.77953;stroke-linejoin:miter;stroke-dasharray:none;stroke-opacity:1;paint-order:markers stroke fill" /><circle
           class="skip"
           cx="575"
           cy="244"
           r="10.08"
           id="circle414"
           style="fill:#bbc2ca;fill-opacity:1;stroke:none;stroke-width:3.77953;stroke-linejoin:miter;stroke-dasharray:none;stroke-opacity:1;paint-order:markers stroke fill" /><circle
           class="skip"
           cx="575"
           cy="281"
           r="10.08"
           id="circle416"
           style="fill:#bbc2ca;fill-opacity:1;stroke:none;stroke-width:3.77953;stroke-linejoin:miter;stroke-dasharray:none;stroke-opacity:1;paint-order:markers stroke fill" /><circle
           class="skip"
           cx="575"
           cy="318"
           r="10.08"
           id="circle418"
           style="fill:#bbc2ca;fill-opacity:1;stroke:none;stroke-width:3.77953;stroke-linejoin:miter;stroke-dasharray:none;stroke-opacity:1;paint-order:markers stroke fill" /><circle
           class="skip"
           cx="575"
           cy="355"
           r="10.08"
           id="circle420"
           style="fill:#bbc2ca;fill-opacity:1;stroke:none;stroke-width:3.77953;stroke-linejoin:miter;stroke-dasharray:none;stroke-opacity:1;paint-order:markers stroke fill" /></g></g></g></svg>
